<?xml version="1.0" encoding="utf-8"?>
<!-- Generator: Adobe Illustrator 23.0.3, SVG Export Plug-In . SVG Version: 6.00 Build 0)  -->
<svg version="1.1" xmlns="http://www.w3.org/2000/svg" xmlns:xlink="http://www.w3.org/1999/xlink" x="0px" y="0px"
	 viewBox="0 0 600 600" style="enable-background:new 0 0 600 600;" xml:space="preserve">
<style type="text/css">
	.st0{fill:#202124;}
	.st1{fill:#FFFFFF;stroke:#202124;stroke-width:0.75;stroke-miterlimit:10;}
	.st2{fill:none;stroke:#D5E1FA;stroke-miterlimit:10;}
	.st3{fill:#D5E1FA;}
	.st4{fill:#5185EC;}
	.st5{fill:#FFFFFF;}
</style>
<g id="letter">
	<path class="st0" d="M541.3,90.9c1.8,12,3.4,24.7,4.7,38.1c1.7,18.4,2.5,35.7,2.6,51.9c-12.4-3.3-25.4-6.4-39.1-9
		c-54.2-10.5-103.8-12.2-146.2-9.8c43-49.3,81.2-74.6,104.5-87.5c21-11.7,38-17.7,52.5-10.8C533,69.7,538.8,83.3,541.3,90.9z"/>
	<path class="st1" d="M417.5,541.9l-235.7-120c-5.7-38.2-49.3-350.6,65.3-401.8c7.3-3.3,15.5-5.6,24.5-6.6
		c56.3,9.7,100,16.5,126.6,20.6c75.4,11.4,127.1,17.8,140.7,51c1.2,2.8,1.8,5.3,2.1,6.8c-2.1-6.6-7.4-20.2-19.5-24.9
		c0,0-15.1-6-39.1,10C437.2,107.1,421.2,454.3,417.5,541.9z"/>
	<line class="st2" x1="244.7" y1="48.3" x2="439.9" y2="84"/>
	<line class="st2" x1="224.2" y1="73.1" x2="380.6" y2="103.3"/>
	<line class="st2" x1="256.7" y1="113.3" x2="425.5" y2="147.6"/>
	<line class="st2" x1="198.9" y1="158.8" x2="408" y2="204.3"/>
	<line class="st2" x1="198.9" y1="190" x2="291.5" y2="211.8"/>
	<line class="st2" x1="224.2" y1="223.6" x2="402.4" y2="262.9"/>
	<line class="st2" x1="204.9" y1="262.2" x2="386.2" y2="304.6"/>
</g>
<g id="letter_front">
	<polygon class="st1" points="300,162.9 266,464.7 431,538.1 474.5,188.1 	"/>
	<polygon class="st3" points="373.4,200.5 303.2,190.2 304.7,172.2 374.9,182.5 	"/>
	<line class="st2" x1="304.3" y1="208" x2="464.9" y2="230.8"/>
	<line class="st2" x1="302.9" y1="226.6" x2="437.1" y2="245.7"/>
	<line class="st2" x1="303.1" y1="241" x2="433" y2="259.4"/>
	<line class="st2" x1="301.3" y1="269.9" x2="435.4" y2="289"/>
</g>
<g id="envelope">
	<path class="st1" d="M163.7,430.3l2.2-1.3c51.2-11.9,113.3-31,180.5-62.2c55.9-26,102.7-54.5,140.4-80.9
		c-7,98.9-14.1,197.9-21.1,296.8"/>
	<polygon class="st1" points="160.1,228.1 163.7,430.3 465.7,582.8 	"/>
	<polygon class="st4" points="198.5,316.4 165.8,300.4 165.2,265.2 198.5,280.9 	"/>
	<polygon class="st3" points="194.9,310.8 169.3,298.3 168.9,270.8 194.9,283.1 	"/>
	<g>
		<g>
			<path class="st3" d="M389.6,381.8c25.3,6.7,50.7,13.5,76,20.2c1.9,0.5,2.7-2.4,0.8-2.9c-25.3-6.7-50.7-13.5-76-20.2
				C388.6,378.4,387.8,381.3,389.6,381.8L389.6,381.8z"/>
		</g>
	</g>
	<g>
		<g>
			<path class="st3" d="M376.3,391.5c11,2.3,21.9,5.4,32.5,9.3c1.8,0.7,2.6-2.2,0.8-2.9c-10.6-3.8-21.5-6.9-32.5-9.3
				C375.2,388.2,374.4,391.1,376.3,391.5L376.3,391.5z"/>
		</g>
	</g>
	<g>
		<g>
			<path class="st3" d="M384,407.6c20.5,6.4,40.9,12.8,61.4,19.1c1.8,0.6,2.6-2.3,0.8-2.9c-20.5-6.4-40.9-12.8-61.4-19.1
				C383,404.1,382.2,407,384,407.6L384,407.6z"/>
		</g>
	</g>
</g>
<g id="character">
	<g id="hand_right">
		<path class="st5" d="M134,420.8c-4.8,0.8-8.1,1.4-10.5,1.8c-3.7,0.6-6.9,1.2-10.9,3c-0.4,0.2-0.7,0.3-1,0.5
			c-2.3,1.2-5.4,3.4-8.3,7.4c-2.7,0.8-4.8,1.8-6.2,2.5c-3.3,1.7-10.3,5.2-14.1,12.6c-0.8,1.6-1.3,3-1.5,3.8c0.5,1.4,1.5,3.4,3.4,4.7
			c3.4,2.3,7.7,1,11.1,0c11.3-3.4,17-5.1,22.8-8.2c5.3-2.8,12.2-6.9,19.7-12.8c0.2-1.7,0.3-4.5-0.6-7.7
			C137.1,424.7,135.2,422.1,134,420.8z"/>
		<path class="st5" d="M258.4,315.6c-2.6-10-19-13.6-24.3-14.6c-0.8,1.1-2.1,2.8-3.5,5c-4.6,7.1-7.2,12.9-8.5,15.8
			c-3.7,8.4-11.3,25-21,47c-5.9,4.4-11.8,8.8-17.7,13.3c-3.1,2.4-9.9,7.5-17.8,13.7c-8.2,6.4-18.9,14.8-31.6,25
			c1.1,1.3,2.8,3.6,3.9,6.9c1.1,3.6,1,6.7,0.8,8.4c10.2-4.4,18.7-8.4,24.9-11.4c26.3-12.9,44.7-24.8,50.6-28.8
			c6.5-4.3,11.7-8,15.3-10.6c2.3-3.2,5.1-7.3,8.1-12.3c2.8-4.7,6.5-11.5,10.2-20c3.6-8.5,5.4-14.8,8-23.5
			C258.9,318.5,258.7,316.8,258.4,315.6z"/>
		<g>
			<g>
				<path class="st0" d="M233.8,300.9c-7.1,9.6-11.9,20.4-16.8,31.2c-5.4,11.8-10.8,23.6-16.1,35.4c-0.2,0.4,0.4,0.8,0.6,0.4
					c5.4-11.8,10.8-23.6,16.1-35.4c4.9-10.8,9.7-21.6,16.8-31.2C234.8,300.9,234.1,300.5,233.8,300.9L233.8,300.9z"/>
			</g>
		</g>
		<g>
			<g>
				<path class="st0" d="M134.8,420.5c21.5-16.8,42.9-33.7,64.4-50.5c0.4-0.3-0.2-0.8-0.5-0.5c-21.5,16.8-42.9,33.7-64.4,50.5
					C133.9,420.3,134.4,420.8,134.8,420.5L134.8,420.5z"/>
			</g>
		</g>
		<g>
			<g>
				<path class="st0" d="M133.8,421.1c3.6,4.3,5.2,9.5,4.5,15.1c-0.1,0.5,0.7,0.5,0.8,0c0.7-5.7-1-11.2-4.8-15.6
					C134,420.2,133.4,420.7,133.8,421.1L133.8,421.1z"/>
			</g>
		</g>
		<g>
			<g>
				<path class="st0" d="M139.3,436.2c30-12.7,58.7-28.4,85.5-46.9c0.4-0.3,0-0.9-0.4-0.6c-26.8,18.5-55.3,34.2-85.3,46.8
					C138.6,435.6,138.8,436.4,139.3,436.2L139.3,436.2z"/>
			</g>
		</g>
		<g>
			<g>
				<path class="st0" d="M229.8,385.6c12.1-16.9,21-35.7,26.3-55.8c0.1-0.5-0.6-0.7-0.7-0.2c-5.2,20-14.1,38.8-26.2,55.6
					C228.9,385.6,229.5,385.9,229.8,385.6L229.8,385.6z"/>
			</g>
		</g>
		<g>
			<g>
				<path class="st0" d="M127.7,421.3c-9.7,2-21.2,3.6-25.5,13.8c-0.1,0.2,0,0.5,0.2,0.6c4.8,1.7,8.4-2.4,13.1-2.9
					c0.5,0,0.5-0.8,0-0.8c-2.5,0.3-4.3,1.3-6.6,2.3c-1.8,0.8-5.1,1.8-5.1-0.9c0-1.7,3.1-3.9,4.4-4.8c5.7-4.3,13-5.2,19.7-6.6
					C128.4,421.9,128.2,421.2,127.7,421.3L127.7,421.3z"/>
			</g>
		</g>
		<g>
			<g>
				<path class="st0" d="M100.5,433.7C92.5,438,84,443,81.3,452.3c-0.1,0.5,0.6,0.7,0.7,0.2c2.7-9.1,11.1-13.9,18.9-18.2
					C101.3,434.1,101,433.5,100.5,433.7L100.5,433.7z"/>
			</g>
		</g>
		<g>
			<g>
				<path class="st0" d="M84.2,454.9c4.2-5.1,9.4-9,15.5-11.5c0.4-0.2,0.2-0.9-0.2-0.7c-6.2,2.5-11.6,6.5-15.8,11.7
					C83.3,454.8,83.9,455.3,84.2,454.9L84.2,454.9z"/>
			</g>
		</g>
		<g>
			<g>
				<path class="st0" d="M87.1,456.2c2.6-1.7,5.1-3.6,7.8-5.2c2.3-1.4,5-1.7,7.4-2.8c0.4-0.2,0.1-0.8-0.4-0.6
					c-2.4,1.1-5.1,1.4-7.4,2.8c-2.7,1.6-5.2,3.5-7.8,5.2C86.3,455.9,86.6,456.5,87.1,456.2L87.1,456.2z"/>
			</g>
		</g>
		<g>
			<g>
				<path class="st0" d="M90.9,457.2c3.4-1.4,6.9-2.6,10.5-3.6c0.5-0.1,0.3-0.8-0.2-0.7c-3.6,1-7.2,2.2-10.7,3.7
					C90.1,456.8,90.4,457.4,90.9,457.2L90.9,457.2z"/>
			</g>
		</g>
	</g>
	<g id="plane">
		<path class="st0" d="M59.9,475c26.1-9.9,52.3-19.9,78.4-29.8c0.6,5.4,1.2,10.9,1.8,16.3C113.4,466,86.7,470.5,59.9,475z"/>
		<path class="st5" d="M37.8,478.7c28.9-13.1,57.7-26.3,86.6-39.4c4.7,2,9.5,4,14.2,6c-21.6,8.3-43.2,16.6-64.8,24.9
			c-2.9,1.1-5.8,2.2-8.7,3.3c6-1,12-2.2,18.2-3.5c23.4-5,44.8-11.3,64.3-18.3c3.7,1.3,7.6,2.8,11.7,4.7c7,3.2,13,6.8,18,10.2
			c-8.9,1.7-18,3.2-27.2,4.7c-2.1,0.3-4.1,0.7-6.2,1c-0.3,4.5-0.6,9-0.9,13.6c-28.5-2.4-56.9-4.8-85.4-7.2
			C51,478.5,44.4,478.6,37.8,478.7z"/>
		<g>
			<g>
				<path class="st0" d="M37.8,478.9c28.9-13.1,57.8-26.2,86.8-39.3c0.4-0.2,0.1-0.8-0.4-0.6c-28.9,13.1-57.8,26.2-86.8,39.3
					C37,478.5,37.4,479.1,37.8,478.9L37.8,478.9z"/>
			</g>
		</g>
		<g>
			<g>
				<path class="st0" d="M124.3,439.6c4.6,2.3,9.3,4.3,14.1,6c0.5,0.2,0.6-0.6,0.2-0.7c-4.8-1.7-9.4-3.7-14-6
					C124.3,438.7,123.9,439.4,124.3,439.6L124.3,439.6z"/>
			</g>
		</g>
		<g>
			<g>
				<path class="st0" d="M138,445.2c-0.1,2.6-0.2,5.2-0.4,7.7c0,0.5,0.7,0.5,0.8,0c0.1-2.6,0.2-5.2,0.4-7.7
					C138.8,444.7,138,444.7,138,445.2L138,445.2z"/>
			</g>
		</g>
		<g>
			<g>
				<path class="st0" d="M37.8,479c39-1.5,78.6-1.3,117.1-8.3c0.5-0.1,0.3-0.8-0.2-0.7c-38.4,7.1-78,6.8-116.9,8.3
					C37.3,478.3,37.3,479,37.8,479L37.8,479z"/>
			</g>
		</g>
		<g>
			<g>
				<path class="st0" d="M65.1,473.8c24.3-9.6,48.7-18.8,73.2-27.7c0.5-0.2,0.3-0.9-0.2-0.7c-24.5,8.9-48.9,18.1-73.2,27.7
					C64.5,473.3,64.7,474,65.1,473.8L65.1,473.8z"/>
			</g>
		</g>
		<g>
			<g>
				<path class="st0" d="M65.5,474c28.2-5.4,56-12.8,83.2-22.2c0.5-0.2,0.3-0.9-0.2-0.7c-27.2,9.3-55,16.8-83.2,22.2
					C64.8,473.4,65,474.1,65.5,474L65.5,474z"/>
			</g>
		</g>
		<g>
			<g>
				<path class="st0" d="M149.9,452.5c7,3,13.8,6.4,20.5,10.1c0.4,0.2,0.8-0.4,0.4-0.6c-6.6-3.7-13.5-7.1-20.5-10.1
					C149.9,451.7,149.5,452.3,149.9,452.5L149.9,452.5z"/>
			</g>
		</g>
		<g>
			<g>
				<path class="st0" d="M57.9,478.6c28.2,4.2,56.5,6.7,85,7.5c0.5,0,0.5-0.7,0-0.8c-28.4-0.8-56.7-3.3-84.8-7.5
					C57.7,477.8,57.5,478.5,57.9,478.6L57.9,478.6z"/>
			</g>
		</g>
		<g>
			<g>
				<path class="st0" d="M144.1,473c-0.3,3.9-0.7,7.7-1,11.6c0,0.5,0.7,0.5,0.8,0c0.3-3.9,0.7-7.7,1-11.6
					C144.9,472.6,144.2,472.6,144.1,473L144.1,473z"/>
			</g>
		</g>
	</g>
	<g id="torso">
		<path class="st5" d="M234.3,297.7c-1.4,2.7-1.5,5.3-1.7,9.3c-0.3,9.5,3.2,16.9,5.3,20.7c1.3,1.8,3.3,4.4,6.1,7.4
			c4.6,5,9.2,8.8,14,12.2c20.3,14.5,47.8,25,52.5,26.8c6.6,2.5,12,4.3,15.3,5.4c8-2,18.6-5.6,30-12c9.6-5.4,17-11.4,22.5-16.4
			c-3.9-6.8-9.8-15.4-18.1-24.2c-13.8-14.6-27.4-22.2-37.6-27.6c-10.7-5.7-17.9-9.5-28.8-11.5c-8.2-1.5-14.2-1.2-22.2-0.9
			C254.5,287.8,239.2,288.4,234.3,297.7z"/>
		<g>
			<g>
				<path class="st0" d="M234.5,298.1c13.1-7.8,28.1-11.9,43.3-11.7c15.4,0.2,29.2,5.5,42.8,12.3c23.9,12,43.8,29.6,57.4,52.7
					c0.2,0.4,0.9,0,0.6-0.4c-14-23.7-34.6-41.5-59.1-53.7c-13.5-6.7-27.3-11.6-42.6-11.7c-15.1-0.1-29.9,4.1-42.9,11.8
					C233.7,297.7,234,298.3,234.5,298.1L234.5,298.1z"/>
			</g>
		</g>
		<g>
			<g>
				<path class="st0" d="M237.6,328c9.6,13.1,22.8,22.5,37,30.1c15.2,8.2,31.4,16,48.2,20.4c0.5,0.1,0.7-0.6,0.2-0.7
					c-16.2-4.2-31.6-11.6-46.4-19.4c-14.6-7.7-28.4-17.2-38.3-30.7C238,327.2,237.3,327.6,237.6,328L237.6,328z"/>
			</g>
		</g>
	</g>
	<g id="hand_left">
		<path class="st5" d="M170.2,446.2c-1.7-0.2-3.9-0.2-6.6,0c-1,0.1-4.7,0.5-9.3,2.2c-2.5,0.9-4.3,1.6-6.2,3.2
			c-1.3,1.1-3.5,3-3.1,4.5c0.6,2.4,6.8,1.6,7.5,4c0.3,1-0.8,2.2-2.9,4.6c-2.8,3.2-4.6,5.2-7.7,6.6c-1.7,0.8-3.3,1-6.4,1.5
			c-5.6,0.8-7.7,0.1-9.5,1.9c-1.4,1.4-1.5,3.3-1.5,3.8c0,3.1,2.7,5.3,4.5,6.7c5.3,4.3,11.4,4.6,12.9,4.7c6.2,0.2,10.8-2.1,12.9-3.2
			c7.5-3.9,11.3-10.1,14.6-15.4c2.9-4.8,4.7-9.1,5.8-12.3C173.5,454.7,171.8,450.4,170.2,446.2z"/>
		<path class="st5" d="M291.8,296.4c-0.6,0.4-2.3,1.6-3.9,3.4c-2,2.3-2.8,4.4-4.2,7.6c-2.8,6.6-2.5,5.1-4.3,9.5
			c-4.3,10.8-7.5,23-7.5,23c-5.6,21.5-11,48.3-11.8,52.1c-12.4,6.4-22.9,12.2-30.9,16.8c-12.5,7.1-26.7,15.3-44.1,27.3
			c-6,4.1-10.9,7.7-14.1,10.1c0,1.8,0.2,4.4,1.3,7.3c0.8,2.3,1.9,4.1,2.8,5.4c4.4-0.5,10.6-1.4,17.9-2.7c14.7-2.7,26.8-6.4,51-13.7
			c0,0,8.5-2.6,22.8-8.6c3.2-1.4,5.9-2.5,9.1-4.8c1.3-0.9,5.7-4.2,11.2-11.4c3.4-4.4,5.2-8.1,7.6-12.9c7.2-14.6,10.9-21.8,11.8-24.1
			c9.2-20.8,16-42.3,18.6-51c0.9-1.9,3.5-7.7,1.7-14.4c-1.2-4.7-3.9-7.5-6-9.7C312.7,297.3,298.8,292,291.8,296.4z"/>
		<g>
			<g>
				<path class="st0" d="M287.6,299.6c-16.5,27.7-19.7,60.3-27.9,90.8c-0.1,0.5,0.6,0.7,0.7,0.2c8.2-30.5,11.4-63,27.8-90.7
					C288.5,299.6,287.9,299.2,287.6,299.6L287.6,299.6z"/>
			</g>
		</g>
		<g>
			<g>
				<path class="st0" d="M258.6,392.4c-30.3,15.8-59.6,33.5-87.7,53c-0.4,0.3,0,0.9,0.4,0.6c28.1-19.5,57.4-37.2,87.7-53
					C259.4,392.8,259,392.1,258.6,392.4L258.6,392.4z"/>
			</g>
		</g>
		<g>
			<g>
				<path class="st0" d="M170.7,446.2c0.2,4.4,1.4,8.7,3.5,12.6c0.2,0.4,0.9,0,0.6-0.4c-2-3.8-3.2-7.9-3.4-12.2
					C171.4,445.7,170.7,445.7,170.7,446.2L170.7,446.2z"/>
			</g>
		</g>
		<g>
			<g>
				<path class="st0" d="M175.1,459.4c34.1-4.3,67.3-14,98.4-28.7c0.4-0.2,0.1-0.9-0.4-0.6c-31,14.6-64,24.3-98,28.6
					C174.6,458.7,174.6,459.4,175.1,459.4L175.1,459.4z"/>
			</g>
		</g>
		<g>
			<g>
				<path class="st0" d="M325.3,327.3c-5.4,19.3-12.3,38.1-20.6,56.3c-4,8.7-8.3,17.3-13,25.7c-4.5,7.9-9.5,15.5-17.4,20.4
					c-0.4,0.2,0,0.9,0.4,0.6c6.9-4.2,11.7-10.5,15.8-17.3c5.3-8.8,9.9-18.1,14.2-27.4c8.7-18.8,15.9-38.2,21.5-58.1
					C326.2,327.1,325.5,326.9,325.3,327.3L325.3,327.3z"/>
			</g>
		</g>
		<g>
			<g>
				<path class="st0" d="M159.8,446.7c-5.7,1.1-11.8,2.6-14.8,8.2c-0.2,0.4,0.4,0.8,0.6,0.4c2.8-5.4,8.8-6.8,14.3-7.9
					C160.5,447.3,160.3,446.6,159.8,446.7L159.8,446.7z"/>
			</g>
		</g>
		<g>
			<g>
				<path class="st0" d="M152.2,459.9c-3.1,5.2-6.3,10-12.6,11.7c-4.5,1.2-9.2,1.1-13.7,2.7c-0.5,0.2-0.3,0.9,0.2,0.7
					c5.4-1.9,11.6-1.3,16.8-3.8c4.6-2.2,7.4-6.7,9.9-10.9C153.1,459.9,152.4,459.5,152.2,459.9L152.2,459.9z"/>
			</g>
		</g>
		<g>
			<g>
				<path class="st0" d="M124.9,477.7c1.9,1.3,4.3,1.2,6.6,1.2c3,0,6.1-0.3,9.1-0.7c0.5-0.1,0.3-0.8-0.2-0.7c-4,0.6-11.4,2-15-0.3
					C124.9,476.8,124.5,477.4,124.9,477.7L124.9,477.7z"/>
			</g>
		</g>
		<g>
			<g>
				<path class="st0" d="M125.3,480.4c4.9,2.4,10.2,2.9,15.5,3.2c0.5,0,0.5-0.7,0-0.8c-5.2-0.3-10.4-0.7-15.1-3.1
					C125.3,479.6,124.9,480.2,125.3,480.4L125.3,480.4z"/>
			</g>
		</g>
		<g>
			<g>
				<path class="st0" d="M127.1,483.7c2.8,2.3,6.1,3.7,9.7,4c0.5,0,0.5-0.7,0-0.8c-3.4-0.3-6.6-1.6-9.2-3.8
					C127.3,482.9,126.7,483.4,127.1,483.7L127.1,483.7z"/>
			</g>
		</g>
		<g>
			<g>
				<path class="st0" d="M174.8,458.6c-3.6,8.5-7.5,16.9-14.1,23.5c-0.3,0.3,0.2,0.9,0.5,0.5c6.7-6.6,10.6-15.1,14.3-23.7
					C175.6,458.6,175,458.2,174.8,458.6L174.8,458.6z"/>
			</g>
		</g>
	</g>
	<g id="head">
		<path class="st5" d="M257.3,310.5c0.3,0.3,1,0.8,1,0.8c0.2,0.2,1.7,1.2,3.2,1.3c1.6,0.2,2.9-0.6,4.6-1.6c2.5-1.6,3.8-3.5,4.3-4.2
			c0.4-0.6,1.1-1.7,1.5-3.2c0.7-2.6,0.8-7.3-1.6-8.7c-2.8-1.6-7.4,2.5-8.2,3.2C257.5,302.2,255.6,308.7,257.3,310.5z"/>
		<g>
			<g>
				<path class="st0" d="M260,309.7c0.8,0.2,1.6,0.3,2.5,0.3c0.5,0,0.5-0.7,0-0.8c-0.8,0-1.5-0.1-2.3-0.3
					C259.7,308.9,259.5,309.6,260,309.7L260,309.7z"/>
			</g>
		</g>
		<g>
			<g>
				<path class="st0" d="M257.6,311c4.4,5.7,12.6-1.6,14-6.3c0.1-0.5-0.6-0.7-0.7-0.2c-1.1,3.9-8.6,11.3-12.6,6.1
					C258,310.3,257.3,310.6,257.6,311L257.6,311z"/>
			</g>
		</g>
		<path class="st0" d="M292,269.9c-0.7,12.3-16.3,21.6-29.7,20.8c-15-1-28.2-14.8-27-25.3c0.5-4,3.3-9.3,7.5-10.5
			c4.7-1.3,8,3.5,11.9,1.9c4.4-1.8,2.8-8.5,6.4-10.8C268,241.6,293,253.8,292,269.9z"/>
		<path class="st5" d="M234.9,294.8c0.1,1,0.6,2.2,1.1,3.5c0.6,1.5,1.7,4.2,4,6.7c1.2,1.3,3.5,3.9,7.4,5.2c4.5,1.6,8.4,0.6,9.8,0.2
			c3.3-0.9,5.5-2.4,6.7-3.4c1.4-1.1,3.9-2.9,5.6-6.2c0.2-0.4,1.2-2.4,1.7-5.2c0.3-1.8,0.9-5.2-0.6-8.9c-0.4-0.9-1.6-3.7-4.3-5.7
			c-5.2-3.9-12.1-2.1-14.9-1.4C242.7,282,234.1,289.3,234.9,294.8z"/>
		<path class="st0" d="M234.8,295.8c0-0.8,0.2-2.9,1.7-4.9c0.6-0.7,2.3-2.8,5.1-3.1c2.7-0.3,4.8,1,6.3,2c2.6,1.7,2.6,3,5.2,4.2
			c0.9,0.4,2.4,1.2,4.3,1.1c0.6,0,1.7-0.2,7.5-3.5c1.9-1.1,2.9-1.6,4.1-1.6c1.6,0,2.8,0.8,3.6,1.5c0.3-1.5,0.6-3.7,0.2-6.4
			c-1.3-8-8-12.2-8.7-12.7c-6.9-4.2-14.1-2.1-16.7-1.4c-4.4,1.2-7.3,3.4-9.7,5.3c-7,5.4-14.4,14.9-12.1,18.4
			C226.3,296.1,228.4,297.1,234.8,295.8z"/>
		<g>
			<g>
				<path class="st0" d="M234.4,294.4c2.3,8.6,8.4,17.2,18.2,17.2c8.5,0,16.7-6.3,18.7-14.5c0.1-0.5-0.6-0.7-0.7-0.2
					c-1.9,7.8-9.8,14-18,14c-9.5,0-15.3-8.4-17.5-16.6C235,293.7,234.3,293.9,234.4,294.4L234.4,294.4z"/>
			</g>
		</g>
		<g>
			<g>
				<path class="st0" d="M235.6,295.6c0.2-5.8,5.1-8.4,10.2-6.7c1.6,0.5,2.8,2,4,3.1c1.5,1.3,2.9,2.6,4.9,3.2c2,0.6,3.9,0.4,5.8-0.4
					c2-0.8,9.9-7.1,11.4-3.1c0.2,0.4,0.9,0.3,0.7-0.2c-0.9-2.4-3-2.8-5.3-1.9c-2.8,1.1-4.7,3.8-7.7,4.8c-4.6,1.4-7.5-1.6-10.7-4.2
					c-5.7-4.6-13.8-2.7-14,5.4C234.9,296,235.6,296,235.6,295.6L235.6,295.6z"/>
			</g>
		</g>
		<g>
			<g>
				<path class="st0" d="M241.6,298.3c0.6,2.3,1.3,4.6,2.4,6.7c0.7,1.4,1.6,2.6,3.3,2.6c0.5,0,0.5-0.7,0-0.8c-2.1-0.1-3-2.8-3.7-4.5
					c-0.6-1.4-1-2.8-1.3-4.3C242.2,297.6,241.5,297.8,241.6,298.3L241.6,298.3z"/>
			</g>
		</g>
		<g>
			<g>
				<path class="st0" d="M244.9,295.6c0.9-1.4,2.7-0.8,3.8-0.1c0.4,0.2,0.8-0.4,0.4-0.6c-1.6-0.9-3.7-1.4-4.9,0.4
					C244,295.7,244.6,296,244.9,295.6L244.9,295.6z"/>
			</g>
		</g>
		<g>
			<g>
				<path class="st0" d="M237.7,297.8c0.5-0.9,1.5-1.4,2.5-0.7c0.4,0.3,0.8-0.4,0.4-0.6c-1.2-0.9-2.8-0.2-3.5,1
					C236.8,297.8,237.4,298.2,237.7,297.8L237.7,297.8z"/>
			</g>
		</g>
		
			<ellipse transform="matrix(0.9343 -0.3566 0.3566 0.9343 -90.7169 108.4513)" class="st0" cx="248.8" cy="300.2" rx="1.1" ry="1.2"/>
		
			<ellipse transform="matrix(0.9343 -0.3566 0.3566 0.9343 -91.9109 105.7788)" class="st0" cx="240.9" cy="302.1" rx="1.1" ry="1.2"/>
		<path class="st5" d="M246.4,271.9c0.3-0.3,5.4-5.2,12.3-3.5c5.7,1.4,8.1,6.4,8.4,7.1c-1.2-1.2-4.2-3.8-8.8-4.8
			C252.6,269.3,247.9,271.3,246.4,271.9z"/>
	</g>
</g>
</svg>
